<?xml version="1.0" encoding="UTF-8"?><svg id="a" xmlns="http://www.w3.org/2000/svg" xmlns:xlink="http://www.w3.org/1999/xlink" viewBox="0 0 792.3 948.3"><defs><style>.d{fill:#005c95;}.e{fill:#fff;}.f{fill:#1780c3;}.g{fill:url(#b);}</style><linearGradient id="b" x1="87.94" y1="796.69" x2="215.93" y2="694.6" gradientTransform="translate(0 943.89) scale(1 -1)" gradientUnits="userSpaceOnUse"><stop offset="0" stop-color="#fff"/><stop offset="1" stop-color="#1780c3"/></linearGradient></defs><path class="f" d="M792.3,234c0-302.3-158.5-85.3-397.4-234C158.5,148.7,0-68.3,0,234S158.5,799.6,394.9,948.3c239-151.1,397.4-414.4,397.4-714.3"/><path class="d" d="M792.3,234c0-302.3-158.5-85.3-394.9-234V945.9c236.5-148.7,394.9-412,394.9-711.9"/><path id="c" class="g" d="M173.1,102.4h-48.7c-56.1,0-80.5,0-80.5,131.6,0,70.7,9.8,139,26.8,204.8C221.8,385.2,338.9,241.3,365.7,63.4c-70.7,34.1-136.5,39-192.6,39"/><path class="e" d="M394.9,563.2c0-12.2,4.9-21.9,9.8-31.7,39-51.2,104.8-136.5,124.3-175.5H229.2c-14.6,0-24.4-7.3-24.4-21.9v-21.9c0-14.6,7.3-24.4,24.4-24.4h385.2c14.6,0,21.9,7.3,21.9,24.4v17.1c0,12.2-2.4,21.9-7.3,31.7-29.3,48.8-90.2,131.6-121.9,173.1h117c14.6,0,24.4,7.3,24.4,24.4v21.9c0,14.6-7.3,24.4-24.4,24.4h-207.2c-14.6,0-21.9-7.3-21.9-24.4"/><path class="e" d="M304.7,287.7v-92.7c0-14.6,7.3-24.4,21.9-24.4h46.4c14.6,0,24.4,7.3,24.4,24.4V463.2c0,14.6-7.3,24.4-24.4,24.4h-46.3c-14.6,0-21.9-7.3-21.9-24.4v-102.4m-97.6,2.4v100c0,14.6-7.3,24.4-21.9,24.4h-48.8c-14.6,0-21.9-7.3-21.9-24.4V195c0-14.6,7.3-24.4,21.9-24.4h46.3c14.6,0,24.4,7.3,24.4,24.4v168.2h0Z"/></svg>